<svg width="41" height="41" viewBox="0 0 41 41" fill="none" xmlns="http://www.w3.org/2000/svg">
<rect width="41" height="41" rx="5" fill="white" fill-opacity="0.85"/>
<path d="M23.1522 12.624C23.6002 12.624 24.0162 12.664 24.4002 12.744C24.7842 12.824 25.1282 12.928 25.4322 13.056L24.5442 15.864C24.3842 15.784 24.2082 15.72 24.0162 15.672C23.8402 15.624 23.6162 15.6 23.3442 15.6C22.8802 15.6 22.5122 15.752 22.2402 16.056C21.9682 16.344 21.8322 16.752 21.8322 17.28V18.24H24.7602V20.928H21.8322V30H18.6882V20.928H16.5762V18.24H18.6882V17.088C18.6882 16.368 18.7922 15.736 19.0002 15.192C19.2242 14.632 19.5362 14.168 19.9362 13.8C20.3362 13.416 20.8082 13.128 21.3522 12.936C21.8962 12.728 22.4962 12.624 23.1522 12.624Z" fill="url(#paint0_linear_100_1277)"/>
<defs>
<linearGradient id="paint0_linear_100_1277" x1="21.0001" y1="19.5" x2="21.0042" y2="30" gradientUnits="userSpaceOnUse">
<stop stop-color="#2B88D9"/>
<stop offset="0.9999" stop-color="#004F94"/>
<stop offset="1" stop-color="#1B73C0" stop-opacity="0"/>
</linearGradient>
</defs>
</svg>
