<svg width="101" height="44" fill="none" xmlns="http://www.w3.org/2000/svg"><path d="M59.474 16.369v-.064c2.612-.55 3.693-2.877 3.693-5.457 0-3.639-2.04-6.072-6.407-6.072h-9.243v24.327h9.243c5.08 0 7.06-2.961 7.06-7.192 0-2.517-1.245-5.246-4.346-5.542Zm-5.836-7.023h1.47c1.244 0 1.938 1.163 1.938 2.517 0 1.29-.694 2.454-1.939 2.454h-1.469V9.346Zm1.694 15.188h-1.694v-5.923h1.694c1.122 0 2.183 1.058 2.183 2.94 0 1.968-1.061 2.983-2.183 2.983Z" fill="url(#a)"/><path d="M74.063 20.176h2.183c-.041 4.252-.796 5.12-2.081 5.12-1.878 0-2.061-1.777-2.061-8.356s.183-8.335 2.203-8.335c.715 0 1.184.36 1.408 1.058.225.635.327 1.586.327 2.813h5.917c0-5.88-3.102-8.165-7.427-8.165-7.223 0-8.733 4.485-8.733 12.629 0 8.038.55 12.65 6.754 12.65 2.08 0 4.244-.55 5.06-2.623h.061l.143 2.136h4.142v-13.22h-7.896v4.293Z" fill="url(#b)"/><path d="M89.937 10.742c0-1.079.592-2.137 1.918-2.137 1.163 0 1.734 1.185 1.734 2.623v.572h5.713c0-5.204-2.264-7.489-7.59-7.489-5.162 0-7.692 2.687-7.692 7.594 0 8.61 9.59 6.24 9.59 11.043 0 1.311-.715 2.348-1.96 2.348-1.183 0-1.999-.762-1.999-2.835v-.571h-5.917v.846c0 5.035 2.816 6.854 7.876 6.854 5.387 0 8.325-2.327 8.325-7.51 0-8.884-9.998-6.536-9.998-11.338Z" fill="url(#c)"/><path d="M51.128 34.624c.205-.105.551-.275.551-.867 0-.55-.245-1.057-1.163-1.057h-2.673v4.188h2.632c1.102 0 1.388-.762 1.388-1.227 0-.698-.428-.93-.735-1.037ZM48.7 33.355h1.429c.49 0 .693.17.693.508 0 .486-.306.55-.55.55H48.7v-1.058Zm1.51 2.877H48.7v-1.206h1.633c.387 0 .653.212.653.593 0 .529-.388.613-.776.613Z" fill="url(#d)"/><path d="M52.475 32.636v.656h.776v-.656h-.776Zm0 1.142v3.11h.776v-3.11h-.776Z" fill="url(#e)"/><path d="M55.638 33.673c-1.347 0-1.857.803-1.857 1.67 0 .847.51 1.672 1.857 1.672 1.346 0 1.857-.825 1.857-1.671 0-.867-.51-1.671-1.857-1.671Zm0 2.707c-.755 0-1.04-.507-1.04-1.036 0-.55.285-1.058 1.04-1.058.755 0 1.04.508 1.04 1.058 0 .529-.285 1.036-1.04 1.036Z" fill="url(#f)"/><path d="M58.045 34.9v.676h1.98V34.9h-1.98Z" fill="url(#g)"/><path d="M63.106 34.603v.656h1.142c-.122.677-.53 1.1-1.387 1.1-.714 0-1.408-.423-1.408-1.523 0-.93.408-1.587 1.449-1.587.55 0 1.06.233 1.204.804h.918c-.082-.825-.878-1.46-2.102-1.46-1.632 0-2.346 1.037-2.346 2.2 0 1.185.673 2.222 2.366 2.222.633 0 1.225-.254 1.551-.677l.123.55h.49v-2.285h-2Z" fill="url(#h)"/><path d="M69.37 35.428c0-.91-.51-1.755-1.837-1.755-1.06 0-1.795.655-1.795 1.692 0 .825.51 1.65 1.856 1.65 1.143 0 1.551-.698 1.714-1.037h-.857c-.142.254-.367.445-.877.445-.775 0-1-.53-1.02-.889h2.816v-.106Zm-2.816-.401c.122-.635.632-.804 1-.804.387 0 .918.19 1 .803h-2Z" fill="url(#i)"/><path d="M71.88 33.694c-.531 0-.919.232-1.184.55v-.465H69.9v3.11h.796v-1.672c0-.656.51-.889.918-.889.653 0 .755.381.755.72v1.84h.775v-2.115c0-.825-.612-1.08-1.265-1.08Z" fill="url(#j)"/><path d="M76.531 33.82c0-.401.368-.57.94-.57.713 0 .999.338 1.02.676h.918c-.103-1.227-1.347-1.332-1.98-1.332-.98 0-1.775.36-1.775 1.29 0 1.714 2.98.804 2.98 1.84 0 .466-.49.635-1 .635-.694 0-1.143-.275-1.164-.825h-.918c.02.889.592 1.48 2.06 1.48.858 0 1.919-.295 1.919-1.374 0-1.777-3-.846-3-1.82Z" fill="url(#k)"/><path d="M82.53 35.703c-.163.445-.326.677-.938.677-.674 0-.96-.507-.96-1.036 0-.55.327-1.058 1.041-1.058.45 0 .776.275.837.592h.816c-.163-1.057-1.183-1.205-1.653-1.205-1.142 0-1.836.655-1.836 1.67 0 .847.51 1.672 1.836 1.672.225 0 1.49-.021 1.673-1.312h-.816Z" fill="url(#l)"/><path d="M83.857 32.636v.656h.775v-.656h-.775Zm0 1.142v3.11h.775v-3.11h-.775Z" fill="url(#m)"/><path d="M88.835 35.428c0-.91-.51-1.755-1.836-1.755-1.061 0-1.816.655-1.816 1.692 0 .825.51 1.65 1.856 1.65 1.143 0 1.551-.698 1.714-1.037h-.836c-.163.254-.388.445-.898.445-.775 0-1-.53-1.02-.889h2.836v-.106ZM86 35.027c.143-.635.632-.804 1-.804.387 0 .918.19 1.02.803h-2.02Z" fill="url(#n)"/><path d="M91.345 33.694c-.551 0-.939.232-1.184.55h-.02v-.465h-.775v3.11h.775v-1.672c0-.656.53-.889.938-.889.633 0 .756.381.756.72v1.84h.775v-2.115c0-.825-.633-1.08-1.265-1.08Z" fill="url(#o)"/><path d="M95.813 35.703c-.163.445-.326.677-.938.677-.674 0-.96-.507-.96-1.036 0-.55.327-1.058 1.041-1.058.45 0 .776.275.837.592h.816c-.163-1.057-1.204-1.205-1.653-1.205-1.163 0-1.856.655-1.856 1.67 0 .847.53 1.672 1.856 1.672.204 0 1.49-.021 1.673-1.312h-.816Z" fill="url(#p)"/><path d="M100.649 35.428c0-.91-.51-1.755-1.836-1.755-1.061 0-1.796.655-1.796 1.692 0 .825.49 1.65 1.857 1.65 1.122 0 1.53-.698 1.714-1.037h-.857c-.143.254-.367.445-.898.445-.755 0-1-.53-1-.889h2.816v-.106Zm-2.816-.401c.123-.635.633-.804 1-.804s.898.19 1 .803h-2Z" fill="url(#q)"/><path d="M4.301 31.07c-.47.445-.918.931-1.387 1.44-.02.02-.02.041-.041.041a22.315 22.315 0 0 1-2.06-5.52c.836 0 1.774.19 2.774.55.102.042.204.063.306.105a3.9 3.9 0 0 0 .408 3.385Z" fill="url(#r)"/><path d="M13.3 39.723c-.409.528-.858 1.036-1.306 1.544a1.343 1.343 0 0 0-.164.19c-1.122-.592-2.203-1.27-3.183-2.052.796-.402 1.327-1.248 1.286-2.242-.041-1.312-1.102-2.348-2.388-2.306-.938.043-1.734.677-2.06 1.523a22.72 22.72 0 0 1-2.102-2.919l.245-.254a28.1 28.1 0 0 1 1.326-1.396c1.47 1.27 3.632 1.163 4.958-.317.041-.021.062-.064.102-.106a27.99 27.99 0 0 1 1.694 1.502c.47.465.918.93 1.347 1.396l-.062.063c-1.346 1.502-1.265 3.872.184 5.268.04.042.082.063.122.106Z" fill="url(#s)"/><path d="M18.115 43.51c-.061 0-.102-.022-.143-.022-.225-.042-.428-.063-.653-.106a20 20 0 0 1-4.57-1.48 24.95 24.95 0 0 0 1.367-1.63 3.44 3.44 0 0 0 3.02 0c.101.212.183.424.265.635.387.931.612 1.798.714 2.602Z" fill="url(#t)"/><path d="M21.175.376C10.341.376 1.425 8.944.363 19.88c.225.212.47.466.51.55.53.868.286 2.052-.571 2.602h-.02c.04 1.016.163 2.01.326 2.983 1 0 2.102.212 3.285.613.163.043.306.106.47.17.081-.127.183-.254.285-.381a3.488 3.488 0 0 1 2.143-1.143l-.103-2.919a2.108 2.108 0 0 1-1.285-.613c-.939-.889-.98-2.412-.122-3.364a2.236 2.236 0 0 1 3.244-.127c.938.889.98 2.412.122 3.364a2.311 2.311 0 0 1-.98.656l.103 3.003a3.651 3.651 0 0 1 1.959.953c.163.169.306.338.428.507.286-.127.551-.254.816-.38 1.143-.487 2.224-.762 3.183-.847.51-.634 1.265-1.079 2.143-1.12 1.591-.043 2.918 1.247 2.979 2.876.02.783-.225 1.48-.674 2.03.102 1.143-.102 2.455-.57 3.872a5.235 5.235 0 0 1-.246.74 3.851 3.851 0 0 1 1.408 2.475l2.795-.105c.062-.487.266-.952.613-1.333.857-.973 2.305-1.016 3.244-.127.918.888.98 2.412.122 3.363-.877.974-2.326 1.037-3.264.127-.286-.296-.51-.634-.613-1.015l-2.897.106a3.783 3.783 0 0 1-.938 2.03 3.987 3.987 0 0 1-.306.297c.122.275.244.529.346.803.45 1.1.715 2.158.796 3.11.694.063 1.388.106 2.081.106.245 0 .47 0 .715-.021.51-.868 1.734-1.206 2.59-.74.082.042.327.232.531.401C34.724 41.521 42.09 32.678 42.09 22.06 42.09 10.086 32.724.376 21.175.376Zm-4.754 21.366c-.47.91-1.57 1.27-2.469.782-.877-.507-1.224-1.65-.755-2.56.47-.93 1.572-1.29 2.47-.782.897.487 1.223 1.63.754 2.56Zm7.448 8.504a1.78 1.78 0 0 1-2.51-.593c-.53-.888-.286-2.051.571-2.601.857-.572 1.98-.297 2.51.592.55.888.286 2.052-.571 2.602Z" fill="url(#u)"/><path d="M17.666 30.055c-.041.847-.225 1.799-.551 2.793l-.184.57c-1-.422-2.163-.316-3.101.255-.47-.53-.96-1.016-1.47-1.523a32.66 32.66 0 0 0-1.815-1.63c.408-.909.428-1.966.081-2.897.245-.127.49-.233.715-.339a11.418 11.418 0 0 1 2.285-.698 4.395 4.395 0 0 0-.102.889c.061 1.65 1.387 2.94 2.979 2.877.408-.022.816-.106 1.163-.297Z" fill="url(#v)"/><defs><linearGradient id="a" x1="36.361" y1="24.239" x2="124.7" y2="-11.47" gradientUnits="userSpaceOnUse"><stop stop-color="#2800D0"/><stop offset="1" stop-color="#BE00FE"/></linearGradient><linearGradient id="b" x1="39.84" y1="32.847" x2="128.179" y2="-2.862" gradientUnits="userSpaceOnUse"><stop stop-color="#2800D0"/><stop offset="1" stop-color="#BE00FE"/></linearGradient><linearGradient id="c" x1="42.148" y1="38.555" x2="130.487" y2="2.846" gradientUnits="userSpaceOnUse"><stop stop-color="#2800D0"/><stop offset="1" stop-color="#BE00FE"/></linearGradient><linearGradient id="d" x1="41.931" y1="38.019" x2="130.27" y2="2.31" gradientUnits="userSpaceOnUse"><stop stop-color="#2800D0"/><stop offset="1" stop-color="#BE00FE"/></linearGradient><linearGradient id="e" x1="42.444" y1="39.289" x2="130.783" y2="3.579" gradientUnits="userSpaceOnUse"><stop stop-color="#2800D0"/><stop offset="1" stop-color="#BE00FE"/></linearGradient><linearGradient id="f" x1="43.058" y1="40.807" x2="131.397" y2="5.098" gradientUnits="userSpaceOnUse"><stop stop-color="#2800D0"/><stop offset="1" stop-color="#BE00FE"/></linearGradient><linearGradient id="g" x1="43.53" y1="41.974" x2="131.869" y2="6.265" gradientUnits="userSpaceOnUse"><stop stop-color="#2800D0"/><stop offset="1" stop-color="#BE00FE"/></linearGradient><linearGradient id="h" x1="44.054" y1="43.273" x2="132.393" y2="7.563" gradientUnits="userSpaceOnUse"><stop stop-color="#2800D0"/><stop offset="1" stop-color="#BE00FE"/></linearGradient><linearGradient id="i" x1="44.841" y1="45.218" x2="133.18" y2="9.509" gradientUnits="userSpaceOnUse"><stop stop-color="#2800D0"/><stop offset="1" stop-color="#BE00FE"/></linearGradient><linearGradient id="j" x1="45.428" y1="46.671" x2="133.767" y2="10.961" gradientUnits="userSpaceOnUse"><stop stop-color="#2800D0"/><stop offset="1" stop-color="#BE00FE"/></linearGradient><linearGradient id="k" x1="46.145" y1="48.444" x2="134.484" y2="12.734" gradientUnits="userSpaceOnUse"><stop stop-color="#2800D0"/><stop offset="1" stop-color="#BE00FE"/></linearGradient><linearGradient id="l" x1="46.944" y1="50.421" x2="135.283" y2="14.712" gradientUnits="userSpaceOnUse"><stop stop-color="#2800D0"/><stop offset="1" stop-color="#BE00FE"/></linearGradient><linearGradient id="m" x1="47.132" y1="50.886" x2="135.471" y2="15.177" gradientUnits="userSpaceOnUse"><stop stop-color="#2800D0"/><stop offset="1" stop-color="#BE00FE"/></linearGradient><linearGradient id="n" x1="47.747" y1="52.408" x2="136.086" y2="16.698" gradientUnits="userSpaceOnUse"><stop stop-color="#2800D0"/><stop offset="1" stop-color="#BE00FE"/></linearGradient><linearGradient id="o" x1="48.336" y1="53.865" x2="136.675" y2="18.155" gradientUnits="userSpaceOnUse"><stop stop-color="#2800D0"/><stop offset="1" stop-color="#BE00FE"/></linearGradient><linearGradient id="p" x1="48.927" y1="55.326" x2="137.266" y2="19.617" gradientUnits="userSpaceOnUse"><stop stop-color="#2800D0"/><stop offset="1" stop-color="#BE00FE"/></linearGradient><linearGradient id="q" x1="49.513" y1="56.776" x2="137.852" y2="21.067" gradientUnits="userSpaceOnUse"><stop stop-color="#2800D0"/><stop offset="1" stop-color="#BE00FE"/></linearGradient><linearGradient id="r" x1="-30.151" y1="3.14" x2="38.014" y2="54.158" gradientUnits="userSpaceOnUse"><stop stop-color="#2800D0"/><stop offset="1" stop-color="#BE00FE"/></linearGradient><linearGradient id="s" x1="-30.382" y1="3.448" x2="37.783" y2="54.466" gradientUnits="userSpaceOnUse"><stop stop-color="#2800D0"/><stop offset="1" stop-color="#BE00FE"/></linearGradient><linearGradient id="t" x1="-30.931" y1="4.182" x2="37.233" y2="55.201" gradientUnits="userSpaceOnUse"><stop stop-color="#2800D0"/><stop offset="1" stop-color="#BE00FE"/></linearGradient><linearGradient id="u" x1="-18.72" y1="-12.133" x2="49.445" y2="38.885" gradientUnits="userSpaceOnUse"><stop stop-color="#2800D0"/><stop offset="1" stop-color="#BE00FE"/></linearGradient><linearGradient id="v" x1="-26.269" y1="-2.048" x2="41.896" y2="48.971" gradientUnits="userSpaceOnUse"><stop stop-color="#2800D0"/><stop offset="1" stop-color="#BE00FE"/></linearGradient></defs></svg>