<svg width="41" height="41" viewBox="0 0 41 41" fill="none" xmlns="http://www.w3.org/2000/svg">
<rect width="41" height="41" rx="5" fill="white" fill-opacity="0.85"/>
<path d="M15.322 15.902C15.118 15.902 14.92 15.866 14.728 15.794C14.548 15.71 14.386 15.602 14.242 15.47C14.11 15.326 14.002 15.164 13.918 14.984C13.846 14.804 13.81 14.606 13.81 14.39C13.81 14.174 13.846 13.976 13.918 13.796C14.002 13.616 14.11 13.46 14.242 13.328C14.386 13.184 14.548 13.076 14.728 13.004C14.92 12.92 15.118 12.878 15.322 12.878C15.742 12.878 16.102 13.028 16.402 13.328C16.702 13.616 16.852 13.97 16.852 14.39C16.852 14.81 16.702 15.17 16.402 15.47C16.102 15.758 15.742 15.902 15.322 15.902ZM14.152 26V17.18H16.51V26H14.152ZM20.8802 18.332H21.0242C21.3002 17.888 21.6722 17.54 22.1402 17.288C22.6082 17.024 23.1422 16.892 23.7422 16.892C24.2942 16.892 24.7802 16.982 25.2002 17.162C25.6202 17.342 25.9622 17.6 26.2262 17.936C26.5022 18.26 26.7062 18.656 26.8382 19.124C26.9822 19.58 27.0542 20.09 27.0542 20.654V26H24.6962V20.942C24.6962 20.306 24.5522 19.838 24.2642 19.538C23.9882 19.226 23.5802 19.07 23.0402 19.07C22.7162 19.07 22.4282 19.142 22.1762 19.286C21.9362 19.418 21.7262 19.604 21.5462 19.844C21.3782 20.072 21.2462 20.348 21.1502 20.672C21.0662 20.984 21.0242 21.32 21.0242 21.68V26H18.6662V17.18H20.8802V18.332Z" fill="url(#paint0_linear_100_1274)"/>
<defs>
<linearGradient id="paint0_linear_100_1274" x1="20.5" y1="9" x2="20.5" y2="31" gradientUnits="userSpaceOnUse">
<stop stop-color="#6EACE2"/>
<stop offset="0.9998" stop-color="#5A9AD2"/>
<stop offset="0.9999" stop-color="#101C26" stop-opacity="0.182292"/>
<stop offset="1" stop-opacity="0"/>
<stop offset="1" stop-color="#1A72BF"/>
</linearGradient>
</defs>
</svg>
