<svg width="101" height="44" viewBox="0 0 101 44" fill="none" xmlns="http://www.w3.org/2000/svg">
<path d="M59.4737 16.3687V16.3052C62.0855 15.7552 63.1669 13.4283 63.1669 10.8475C63.1669 7.20906 61.1265 4.77637 56.76 4.77637H47.517V29.1033H56.76C61.8406 29.1033 63.8198 26.1418 63.8198 21.911C63.8198 19.3937 62.5751 16.6648 59.4737 16.3687ZM53.6382 9.3456H55.1073C56.3519 9.3456 57.0457 10.5091 57.0457 11.8629C57.0457 13.1533 56.3519 14.3168 55.1073 14.3168H53.6382V9.3456ZM55.3317 24.5341H53.6382V18.611H55.3317C56.4539 18.611 57.5149 19.6687 57.5149 21.5514C57.5149 23.5187 56.4539 24.5341 55.3317 24.5341Z" fill="url(#paint0_linear_100_938)"/>
<path d="M74.0626 20.1764H76.2458C76.205 24.4283 75.4501 25.2957 74.1646 25.2957C72.2874 25.2957 72.1038 23.5187 72.1038 16.9399C72.1038 10.361 72.2874 8.60527 74.3074 8.60527C75.0216 8.60527 75.4909 8.96488 75.7153 9.66296C75.9398 10.2976 76.0418 11.2495 76.0418 12.4764H81.9589C81.9589 6.59565 78.8575 4.31104 74.5319 4.31104C67.3088 4.31104 65.799 8.79565 65.799 16.9399C65.799 24.9783 66.3499 29.5899 72.5527 29.5899C74.6339 29.5899 76.7967 29.0399 77.6129 26.9668H77.6741L77.8169 29.1033H81.9589V15.8822H74.0626V20.1764Z" fill="url(#paint1_linear_100_938)"/>
<path d="M89.937 10.7418C89.937 9.66296 90.5287 8.60527 91.8549 8.60527C93.018 8.60527 93.5893 9.78988 93.5893 11.2283V11.7995H99.3024C99.3024 6.59565 97.0376 4.31104 91.7121 4.31104C86.5499 4.31104 84.0198 6.99757 84.0198 11.9053C84.0198 20.5149 93.6097 18.1457 93.6097 22.9476C93.6097 24.2591 92.8955 25.2957 91.6509 25.2957C90.4675 25.2957 89.6513 24.5341 89.6513 22.461V21.8899H83.7341V22.736C83.7341 27.7707 86.5499 29.5899 91.6101 29.5899C96.9968 29.5899 99.9349 27.263 99.9349 22.0803C99.9349 13.1957 89.937 15.5437 89.937 10.7418Z" fill="url(#paint2_linear_100_938)"/>
<path d="M51.1284 34.6245C51.3325 34.5187 51.6793 34.3495 51.6793 33.7572C51.6793 33.2072 51.4345 32.6995 50.5163 32.6995H47.8434V36.8879H50.4755C51.5773 36.8879 51.863 36.1264 51.863 35.661C51.863 34.9629 51.4345 34.7302 51.1284 34.6245ZM48.7004 33.3552H50.1286C50.6183 33.3552 50.8224 33.5245 50.8224 33.8629C50.8224 34.3495 50.5163 34.4129 50.2715 34.4129H48.7004V33.3552ZM50.2103 36.2322H48.7004V35.0264H50.3327C50.7204 35.0264 50.9856 35.2379 50.9856 35.6187C50.9856 36.1475 50.5979 36.2322 50.2103 36.2322Z" fill="url(#paint3_linear_100_938)"/>
<path d="M52.4751 32.636V33.2918H53.2505V32.636H52.4751ZM52.4751 33.7783V36.8879H53.2505V33.7783H52.4751Z" fill="url(#paint4_linear_100_938)"/>
<path d="M55.6378 33.6726C54.2911 33.6726 53.781 34.4765 53.781 35.3438C53.781 36.1899 54.2911 37.0149 55.6378 37.0149C56.9844 37.0149 57.4945 36.1899 57.4945 35.3438C57.4945 34.4765 56.9844 33.6726 55.6378 33.6726ZM55.6378 36.3803C54.8828 36.3803 54.5972 35.8726 54.5972 35.3438C54.5972 34.7938 54.8828 34.2861 55.6378 34.2861C56.3927 34.2861 56.6784 34.7938 56.6784 35.3438C56.6784 35.8726 56.3927 36.3803 55.6378 36.3803Z" fill="url(#paint5_linear_100_938)"/>
<path d="M58.0454 34.8994V35.5763H60.0246V34.8994H58.0454Z" fill="url(#paint6_linear_100_938)"/>
<path d="M63.1057 34.6034V35.2591H64.2483C64.1259 35.9361 63.7178 36.3591 62.8608 36.3591C62.1467 36.3591 61.4529 35.9361 61.4529 34.8361C61.4529 33.9053 61.861 33.2495 62.9016 33.2495C63.4525 33.2495 63.9626 33.4822 64.1055 34.0534H65.0236C64.942 33.2284 64.1463 32.5938 62.922 32.5938C61.2897 32.5938 60.5756 33.6303 60.5756 34.7937C60.5756 35.9784 61.2489 37.0149 62.9424 37.0149C63.575 37.0149 64.1667 36.7611 64.4931 36.338L64.6156 36.888H65.1053V34.6034H63.1057Z" fill="url(#paint7_linear_100_938)"/>
<path d="M69.3696 35.4284C69.3696 34.5188 68.8595 33.6726 67.5332 33.6726C66.4722 33.6726 65.7377 34.3284 65.7377 35.3649C65.7377 36.1899 66.2478 37.0149 67.5944 37.0149C68.7371 37.0149 69.1451 36.3168 69.3084 35.9784H68.4514C68.3086 36.2322 68.0841 36.4226 67.574 36.4226C66.7987 36.4226 66.5742 35.8938 66.5538 35.5341H69.3696V35.4284ZM66.5538 35.0265C66.6763 34.3918 67.1864 34.2226 67.5536 34.2226C67.9413 34.2226 68.4718 34.413 68.5534 35.0265H66.5538Z" fill="url(#paint8_linear_100_938)"/>
<path d="M71.8793 33.6938C71.3488 33.6938 70.9612 33.9265 70.6959 34.2438V33.7785H69.9001V36.8881H70.6959V35.2169C70.6959 34.5612 71.206 34.3285 71.6141 34.3285C72.267 34.3285 72.369 34.7092 72.369 35.0477V36.8881H73.1444V34.7727C73.1444 33.9477 72.5323 33.6938 71.8793 33.6938Z" fill="url(#paint9_linear_100_938)"/>
<path d="M76.5315 33.8207C76.5315 33.4188 76.8988 33.2495 77.4701 33.2495C78.1842 33.2495 78.4699 33.588 78.4903 33.9264H79.4085C79.3065 32.6995 78.0618 32.5938 77.4293 32.5938C76.4499 32.5938 75.6541 32.9534 75.6541 33.8841C75.6541 35.5976 78.6331 34.688 78.6331 35.7245C78.6331 36.1899 78.1434 36.3591 77.6333 36.3591C76.9396 36.3591 76.4907 36.0841 76.4703 35.5341H75.5521C75.5725 36.4226 76.1438 37.0149 77.6129 37.0149C78.4699 37.0149 79.5309 36.7187 79.5309 35.6399C79.5309 33.863 76.5315 34.7938 76.5315 33.8207Z" fill="url(#paint10_linear_100_938)"/>
<path d="M82.5302 35.7034C82.367 36.1476 82.2038 36.3803 81.5917 36.3803C80.9183 36.3803 80.6327 35.8726 80.6327 35.3438C80.6327 34.7938 80.9591 34.2861 81.6733 34.2861C82.1222 34.2861 82.4486 34.5611 82.5098 34.8784H83.326C83.1628 33.8207 82.1426 33.6726 81.6733 33.6726C80.5307 33.6726 79.8369 34.3284 79.8369 35.3438C79.8369 36.1899 80.347 37.0149 81.6733 37.0149C81.8977 37.0149 83.1628 36.9938 83.3464 35.7034H82.5302Z" fill="url(#paint11_linear_100_938)"/>
<path d="M83.8566 32.636V33.2918H84.6319V32.636H83.8566ZM83.8566 33.7783V36.8879H84.6319V33.7783H83.8566Z" fill="url(#paint12_linear_100_938)"/>
<path d="M88.8351 35.4284C88.8351 34.5188 88.325 33.6726 86.9987 33.6726C85.9377 33.6726 85.1827 34.3284 85.1827 35.3649C85.1827 36.1899 85.6928 37.0149 87.0395 37.0149C88.1821 37.0149 88.5902 36.3168 88.7534 35.9784H87.9169C87.7536 36.2322 87.5292 36.4226 87.0191 36.4226C86.2437 36.4226 86.0193 35.8938 85.9989 35.5341H88.8351V35.4284ZM85.9989 35.0265C86.1417 34.3918 86.6314 34.2226 86.9987 34.2226C87.3864 34.2226 87.9169 34.413 88.0189 35.0265H85.9989Z" fill="url(#paint13_linear_100_938)"/>
<path d="M91.3448 33.6938C90.7939 33.6938 90.4062 33.9265 90.1614 34.2438H90.141V33.7785H89.3656V36.8881H90.141V35.2169C90.141 34.5612 90.6715 34.3285 91.0795 34.3285C91.7121 34.3285 91.8345 34.7092 91.8345 35.0477V36.8881H92.6098V34.7727C92.6098 33.9477 91.9773 33.6938 91.3448 33.6938Z" fill="url(#paint14_linear_100_938)"/>
<path d="M95.8133 35.7034C95.6501 36.1476 95.4869 36.3803 94.8748 36.3803C94.2014 36.3803 93.9158 35.8726 93.9158 35.3438C93.9158 34.7938 94.2422 34.2861 94.9564 34.2861C95.4053 34.2861 95.7317 34.5611 95.7929 34.8784H96.6091C96.4459 33.8207 95.4053 33.6726 94.9564 33.6726C93.7933 33.6726 93.0996 34.3284 93.0996 35.3438C93.0996 36.1899 93.6301 37.0149 94.9564 37.0149C95.1604 37.0149 96.4459 36.9938 96.6295 35.7034H95.8133Z" fill="url(#paint15_linear_100_938)"/>
<path d="M100.649 35.4284C100.649 34.5188 100.139 33.6726 98.8126 33.6726C97.7516 33.6726 97.0171 34.3284 97.0171 35.3649C97.0171 36.1899 97.5068 37.0149 98.8739 37.0149C99.9961 37.0149 100.404 36.3168 100.588 35.9784H99.7308C99.588 36.2322 99.3636 36.4226 98.833 36.4226C98.0781 36.4226 97.8333 35.8938 97.8333 35.5341H100.649V35.4284ZM97.8333 35.0265C97.9557 34.3918 98.4658 34.2226 98.833 34.2226C99.2003 34.2226 99.7308 34.413 99.8328 35.0265H97.8333Z" fill="url(#paint16_linear_100_938)"/>
<path d="M4.30122 31.0707C3.83193 31.5149 3.38304 32.0014 2.91375 32.5091C2.89335 32.5303 2.89335 32.5514 2.87294 32.5514C1.95476 30.838 1.26102 28.9764 0.812134 27.0303C1.6487 27.0303 2.58729 27.2207 3.58708 27.5803C3.6891 27.6226 3.79112 27.6437 3.89314 27.686C3.50547 28.8072 3.6483 30.0553 4.30122 31.0707Z" fill="url(#paint17_linear_100_938)"/>
<path d="M13.2994 39.7226C12.8913 40.2514 12.4424 40.7591 11.9936 41.2668C11.9323 41.3302 11.8711 41.3937 11.8303 41.4572C10.7081 40.8649 9.62669 40.1879 8.6473 39.4052C9.44306 39.0033 9.97356 38.1572 9.93275 37.1629C9.89194 35.8514 8.83094 34.8149 7.54548 34.8572C6.60689 34.8995 5.81114 35.5341 5.48467 36.3802C4.70932 35.4706 4.01558 34.4976 3.38306 33.461C3.46467 33.3764 3.54629 33.2918 3.62791 33.2072C4.05639 32.7206 4.50528 32.2552 4.95417 31.811C6.42326 33.0802 8.58609 32.9745 9.91235 31.4937C9.95316 31.4726 9.97356 31.4302 10.0144 31.3879C10.5857 31.8533 11.157 32.361 11.7079 32.8899C12.1772 33.3552 12.6261 33.8206 13.0546 34.286C13.0342 34.3072 13.0138 34.3283 12.9934 34.3495C11.6467 35.8514 11.7283 38.2206 13.177 39.6168C13.2178 39.6591 13.2586 39.6802 13.2994 39.7226Z" fill="url(#paint18_linear_100_938)"/>
<path d="M18.1148 43.5092C18.0536 43.5092 18.0128 43.4881 17.972 43.4881C17.7475 43.4458 17.5435 43.4246 17.319 43.3823C15.7275 43.065 14.1972 42.5785 12.7485 41.9016C13.2382 41.3727 13.6871 40.8227 14.1156 40.2727C15.0746 40.7381 16.1764 40.7381 17.1354 40.2727C17.2374 40.4842 17.319 40.6958 17.4007 40.9073C17.7883 41.8381 18.0128 42.7054 18.1148 43.5092Z" fill="url(#paint19_linear_100_938)"/>
<path d="M21.1754 0.376465C10.3408 0.376465 1.42424 8.94377 0.363232 19.8803C0.587677 20.0918 0.832525 20.3457 0.873333 20.4303C1.40384 21.2976 1.15899 22.4822 0.30202 23.0322H0.281616C0.322424 24.0476 0.444849 25.0418 0.608081 26.0149C1.60788 26.0149 2.7097 26.2265 3.89313 26.6284C4.05636 26.6707 4.19919 26.7342 4.36242 26.7976C4.44404 26.6707 4.54606 26.5438 4.64808 26.4168C5.2398 25.7611 5.99475 25.3803 6.7905 25.2745L6.68848 22.3553C6.21919 22.313 5.7703 22.1015 5.40303 21.7418C4.46444 20.8534 4.42364 19.3303 5.28061 18.3784C6.13758 17.4053 7.60667 17.363 8.52485 18.2515C9.46343 19.1399 9.50424 20.663 8.64727 21.6149C8.36162 21.9322 8.03515 22.1438 7.66788 22.2707L7.7699 25.2745C8.48404 25.3803 9.15737 25.6976 9.72869 26.2265C9.89192 26.3957 10.0347 26.5649 10.1572 26.7342C10.4428 26.6072 10.7081 26.4803 10.9733 26.3534C12.116 25.8668 13.1974 25.5918 14.1564 25.5072C14.6665 24.8726 15.4214 24.4284 16.2988 24.3861C17.8903 24.3438 19.2166 25.6342 19.2778 27.263C19.2982 28.0457 19.0533 28.7438 18.6044 29.2938C18.7065 30.4361 18.5024 31.7476 18.0331 33.1649C17.9719 33.4188 17.8903 33.6515 17.7883 33.9053C17.8903 33.9899 17.9923 34.0745 18.0739 34.1592C18.7065 34.7726 19.0737 35.5553 19.1962 36.3803L21.9915 36.2745C22.0527 35.788 22.2568 35.3226 22.6036 34.9418C23.4606 33.9688 24.9093 33.9265 25.8479 34.8149C26.7661 35.7034 26.8273 37.2265 25.9703 38.1784C25.0929 39.1515 23.6442 39.2149 22.7057 38.3053C22.42 38.0092 22.1956 37.6707 22.0935 37.2899L19.1962 37.3957C19.0941 38.1361 18.7881 38.8342 18.2576 39.4265C18.1556 39.5322 18.0535 39.638 17.9515 39.7226C18.0739 39.9976 18.1964 40.2515 18.2984 40.5265C18.7473 41.6265 19.0125 42.6842 19.0941 43.6361C19.7879 43.6995 20.4816 43.7418 21.1754 43.7418C21.4202 43.7418 21.6446 43.7418 21.8895 43.7207C22.3996 42.8534 23.6238 42.5149 24.4808 42.9803C24.5624 43.0226 24.8073 43.213 25.0113 43.3822C34.7236 41.5207 42.0895 32.6784 42.0895 22.0592C42.0895 10.0861 32.724 0.376465 21.1754 0.376465ZM16.4212 21.7418C15.9519 22.6515 14.8501 23.0111 13.9523 22.5245C13.0749 22.0168 12.7281 20.8745 13.1974 19.9649C13.6667 19.0342 14.7685 18.6745 15.6663 19.1822C16.564 19.6688 16.8905 20.8111 16.4212 21.7418ZM23.8687 30.2457C23.0117 30.7957 21.8895 30.5418 21.359 29.6534C20.8285 28.7649 21.0733 27.6015 21.9303 27.0515C22.7873 26.4803 23.9095 26.7553 24.44 27.6438C24.9909 28.5322 24.7257 29.6957 23.8687 30.2457Z" fill="url(#paint20_linear_100_938)"/>
<path d="M17.6658 30.0554C17.625 30.9016 17.4414 31.8535 17.1149 32.8477C17.0537 33.0381 16.9925 33.2285 16.9313 33.4189C15.9315 32.9958 14.7684 33.1016 13.8298 33.6727C13.3606 33.1439 12.8709 32.6573 12.3608 32.1496C11.769 31.5785 11.1569 31.0285 10.5448 30.5208C10.9529 29.6112 10.9733 28.5535 10.6264 27.6227C10.8713 27.4958 11.1161 27.39 11.3406 27.2843C12.1567 26.9458 12.9321 26.7131 13.6258 26.5862C13.5646 26.8823 13.5238 27.1785 13.5238 27.4746C13.585 29.1246 14.9113 30.415 16.5028 30.3516C16.9109 30.3304 17.3189 30.2458 17.6658 30.0554Z" fill="url(#paint21_linear_100_938)"/>
<defs>
<linearGradient id="paint0_linear_100_938" x1="36.3606" y1="24.2393" x2="124.7" y2="-11.4702" gradientUnits="userSpaceOnUse">
<stop stop-color="#2800D0"/>
<stop offset="1" stop-color="#BE00FE"/>
</linearGradient>
<linearGradient id="paint1_linear_100_938" x1="39.8402" y1="32.8472" x2="128.179" y2="-2.86227" gradientUnits="userSpaceOnUse">
<stop stop-color="#2800D0"/>
<stop offset="1" stop-color="#BE00FE"/>
</linearGradient>
<linearGradient id="paint2_linear_100_938" x1="42.1477" y1="38.5554" x2="130.487" y2="2.84597" gradientUnits="userSpaceOnUse">
<stop stop-color="#2800D0"/>
<stop offset="1" stop-color="#BE00FE"/>
</linearGradient>
<linearGradient id="paint3_linear_100_938" x1="41.9308" y1="38.0191" x2="130.27" y2="2.3097" gradientUnits="userSpaceOnUse">
<stop stop-color="#2800D0"/>
<stop offset="1" stop-color="#BE00FE"/>
</linearGradient>
<linearGradient id="paint4_linear_100_938" x1="42.444" y1="39.2886" x2="130.783" y2="3.57882" gradientUnits="userSpaceOnUse">
<stop stop-color="#2800D0"/>
<stop offset="1" stop-color="#BE00FE"/>
</linearGradient>
<linearGradient id="paint5_linear_100_938" x1="43.058" y1="40.8075" x2="131.397" y2="5.09802" gradientUnits="userSpaceOnUse">
<stop stop-color="#2800D0"/>
<stop offset="1" stop-color="#BE00FE"/>
</linearGradient>
<linearGradient id="paint6_linear_100_938" x1="43.5298" y1="41.9745" x2="131.869" y2="6.26515" gradientUnits="userSpaceOnUse">
<stop stop-color="#2800D0"/>
<stop offset="1" stop-color="#BE00FE"/>
</linearGradient>
<linearGradient id="paint7_linear_100_938" x1="44.0545" y1="43.2725" x2="132.393" y2="7.5631" gradientUnits="userSpaceOnUse">
<stop stop-color="#2800D0"/>
<stop offset="1" stop-color="#BE00FE"/>
</linearGradient>
<linearGradient id="paint8_linear_100_938" x1="44.841" y1="45.2185" x2="133.18" y2="9.50894" gradientUnits="userSpaceOnUse">
<stop stop-color="#2800D0"/>
<stop offset="1" stop-color="#BE00FE"/>
</linearGradient>
<linearGradient id="paint9_linear_100_938" x1="45.428" y1="46.6707" x2="133.767" y2="10.9611" gradientUnits="userSpaceOnUse">
<stop stop-color="#2800D0"/>
<stop offset="1" stop-color="#BE00FE"/>
</linearGradient>
<linearGradient id="paint10_linear_100_938" x1="46.1448" y1="48.4436" x2="134.484" y2="12.7341" gradientUnits="userSpaceOnUse">
<stop stop-color="#2800D0"/>
<stop offset="1" stop-color="#BE00FE"/>
</linearGradient>
<linearGradient id="paint11_linear_100_938" x1="46.9441" y1="50.4211" x2="135.283" y2="14.7116" gradientUnits="userSpaceOnUse">
<stop stop-color="#2800D0"/>
<stop offset="1" stop-color="#BE00FE"/>
</linearGradient>
<linearGradient id="paint12_linear_100_938" x1="47.1324" y1="50.8865" x2="135.471" y2="15.1772" gradientUnits="userSpaceOnUse">
<stop stop-color="#2800D0"/>
<stop offset="1" stop-color="#BE00FE"/>
</linearGradient>
<linearGradient id="paint13_linear_100_938" x1="47.7472" y1="52.4079" x2="136.086" y2="16.6985" gradientUnits="userSpaceOnUse">
<stop stop-color="#2800D0"/>
<stop offset="1" stop-color="#BE00FE"/>
</linearGradient>
<linearGradient id="paint14_linear_100_938" x1="48.3361" y1="53.8647" x2="136.675" y2="18.1552" gradientUnits="userSpaceOnUse">
<stop stop-color="#2800D0"/>
<stop offset="1" stop-color="#BE00FE"/>
</linearGradient>
<linearGradient id="paint15_linear_100_938" x1="48.927" y1="55.3263" x2="137.266" y2="19.6168" gradientUnits="userSpaceOnUse">
<stop stop-color="#2800D0"/>
<stop offset="1" stop-color="#BE00FE"/>
</linearGradient>
<linearGradient id="paint16_linear_100_938" x1="49.513" y1="56.7763" x2="137.852" y2="21.0668" gradientUnits="userSpaceOnUse">
<stop stop-color="#2800D0"/>
<stop offset="1" stop-color="#BE00FE"/>
</linearGradient>
<linearGradient id="paint17_linear_100_938" x1="-30.1515" y1="3.14011" x2="38.0135" y2="54.1584" gradientUnits="userSpaceOnUse">
<stop stop-color="#2800D0"/>
<stop offset="1" stop-color="#BE00FE"/>
</linearGradient>
<linearGradient id="paint18_linear_100_938" x1="-30.3819" y1="3.44788" x2="37.7831" y2="54.4662" gradientUnits="userSpaceOnUse">
<stop stop-color="#2800D0"/>
<stop offset="1" stop-color="#BE00FE"/>
</linearGradient>
<linearGradient id="paint19_linear_100_938" x1="-30.9315" y1="4.18235" x2="37.2335" y2="55.2006" gradientUnits="userSpaceOnUse">
<stop stop-color="#2800D0"/>
<stop offset="1" stop-color="#BE00FE"/>
</linearGradient>
<linearGradient id="paint20_linear_100_938" x1="-18.7201" y1="-12.1333" x2="49.445" y2="38.8849" gradientUnits="userSpaceOnUse">
<stop stop-color="#2800D0"/>
<stop offset="1" stop-color="#BE00FE"/>
</linearGradient>
<linearGradient id="paint21_linear_100_938" x1="-26.2687" y1="-2.04757" x2="41.8963" y2="48.9707" gradientUnits="userSpaceOnUse">
<stop stop-color="#2800D0"/>
<stop offset="1" stop-color="#BE00FE"/>
</linearGradient>
</defs>
</svg>
